<?xml version="1.0" standalone="no"?>
<!DOCTYPE svg PUBLIC "-//W3C//DTD SVG 20010904//EN"
 "http://www.w3.org/TR/2001/REC-SVG-20010904/DTD/svg10.dtd">
<svg version="1.0" xmlns="http://www.w3.org/2000/svg"
 width="512.000000pt" height="512.000000pt" viewBox="0 0 512.000000 512.000000"
 preserveAspectRatio="xMidYMid meet">
<metadata>
Created by potrace 1.14, written by Peter Selinger 2001-2017
</metadata>
<g transform="translate(0.000000,512.000000) scale(0.100000,-0.100000)"
fill="#000000" stroke="none">
<path d="M3750 4643 c-25 -24 -69 -138 -299 -773 l-269 -745 -43 -7 c-24 -4
-496 -28 -1049 -53 -1093 -50 -1083 -50 -1257 1 -230 66 -443 223 -571 419
-80 123 -82 126 -119 142 -46 19 -86 9 -118 -29 -40 -47 -34 -95 21 -187 156
-257 406 -455 686 -544 l87 -28 -33 -47 c-98 -137 -148 -311 -148 -506 1 -175
34 -328 106 -492 19 -43 31 -83 27 -89 -38 -48 -267 -365 -282 -389 -10 -17
-19 -43 -19 -58 0 -36 125 -715 138 -749 19 -47 51 -59 166 -59 97 0 107 2
134 25 16 13 32 38 35 54 3 16 -11 122 -33 242 -22 118 -40 223 -39 234 0 15
122 112 446 355 245 184 464 355 486 380 22 25 55 69 75 97 27 42 39 52 56 48
29 -7 898 -156 1184 -203 128 -22 237 -43 241 -48 4 -5 45 -247 90 -539 45
-291 87 -547 92 -567 16 -63 46 -78 158 -78 102 0 126 9 150 57 8 15 11 192
11 593 l0 571 30 26 c37 31 75 93 99 165 11 29 71 296 136 593 64 297 118 547
121 557 4 14 22 16 122 16 199 0 349 51 502 168 131 100 250 268 250 352 0 65
-27 83 -284 187 l-230 93 -17 50 c-35 101 -131 205 -216 232 -21 7 -41 15 -45
19 -4 3 -12 69 -19 146 -14 169 -25 200 -75 221 -61 26 -94 13 -167 -66 -36
-39 -67 -70 -69 -70 -3 0 -20 55 -38 123 -28 99 -40 128 -66 155 -43 43 -100
45 -144 5z"/>
</g>
</svg>
