<?xml version="1.0" standalone="no"?>
<!DOCTYPE svg PUBLIC "-//W3C//DTD SVG 20010904//EN"
 "http://www.w3.org/TR/2001/REC-SVG-20010904/DTD/svg10.dtd">
<svg version="1.0" xmlns="http://www.w3.org/2000/svg"
 width="512.000000pt" height="512.000000pt" viewBox="0 0 512.000000 512.000000"
 preserveAspectRatio="xMidYMid meet">
<metadata>
Created by potrace 1.14, written by Peter Selinger 2001-2017
</metadata>
<g transform="translate(0.000000,512.000000) scale(0.100000,-0.100000)"
fill="#000000" stroke="none">
<path d="M0 2560 l0 -2560 2560 0 2560 0 0 2560 0 2560 -2560 0 -2560 0 0
-2560z m3142 1200 c-22 -201 -15 -229 82 -316 109 -100 125 -104 300 -74 110
19 301 8 443 -24 145 -34 173 -31 240 24 26 22 53 40 60 40 6 0 29 20 50 45
46 54 73 54 73 0 0 -26 5 -34 23 -39 26 -6 107 -97 107 -119 0 -8 -9 -26 -21
-41 -15 -19 -30 -26 -56 -26 -19 0 -47 -8 -61 -18 -15 -10 -35 -22 -45 -25
-17 -6 -18 -16 -11 -104 6 -87 11 -107 47 -178 56 -114 104 -183 129 -187 30
-4 48 -36 28 -48 -42 -27 -66 -12 -197 116 -70 69 -146 135 -167 146 -37 19
-41 19 -73 4 -41 -19 -64 -57 -94 -148 -18 -56 -20 -74 -11 -89 11 -18 9 -19
-32 -19 -56 0 -58 7 -49 167 l6 122 -24 5 c-45 10 -164 24 -171 19 -5 -2 -29
-47 -54 -99 l-46 -95 26 -40 c15 -21 34 -39 44 -39 19 0 42 -18 42 -32 0 -4
-13 -8 -30 -8 -16 0 -30 -4 -30 -10 0 -25 -41 -6 -73 34 -64 78 -79 111 -76
168 7 145 5 146 -142 46 -139 -95 -169 -129 -169 -194 l0 -44 -40 0 c-39 0
-40 1 -40 34 0 46 55 186 89 230 16 19 45 82 66 138 21 57 47 120 57 140 l18
37 -69 36 c-90 47 -175 125 -208 189 -37 73 -44 193 -14 260 18 42 24 47 48
44 23 -2 28 -7 25 -28z m-1705 -185 c3 -88 3 -82 3 -190 1 -49 5 -91 11 -93
14 -6 11 -24 -8 -37 -15 -11 -15 -14 5 -40 26 -33 27 -50 7 -98 -18 -43 -19
-126 -4 -181 6 -22 29 -77 50 -123 27 -58 39 -97 39 -128 l0 -44 -42 19 c-38
17 -67 20 -270 20 l-228 0 0 -430 0 -430 115 0 115 0 0 159 0 158 113 5 c80 3
121 9 145 22 19 10 36 15 40 12 3 -3 -3 -59 -13 -124 -26 -169 -19 -192 71
-241 46 -26 67 -54 59 -80 -4 -14 -20 -20 -62 -25 -51 -6 -59 -4 -83 19 -14
14 -33 25 -42 25 -9 0 -18 10 -21 23 -2 12 -19 78 -36 147 -17 69 -34 136 -37
150 -5 21 -9 15 -26 -35 -11 -33 -33 -74 -50 -91 l-30 -32 30 -7 c53 -11 85
-71 54 -101 -12 -13 -34 -15 -111 -13 l-96 4 -5 -30 c-6 -35 -29 -41 -128 -30
-54 6 -64 10 -72 31 -9 22 -15 24 -74 24 -61 0 -67 -2 -88 -30 -17 -24 -29
-30 -59 -30 -58 0 -87 15 -103 55 -10 23 -22 35 -34 35 -11 0 -53 -30 -93 -66
-146 -132 -210 -168 -226 -128 -7 20 44 127 83 173 18 21 62 49 120 76 58 27
97 52 105 67 7 12 16 64 20 113 4 52 18 118 32 156 31 86 77 165 87 150 5 -9
9 -9 17 1 20 25 60 114 97 218 21 58 49 134 62 168 14 35 22 72 19 82 -3 11 3
41 15 68 16 36 20 65 18 113 l-3 64 -32 -3 c-18 -1 -33 1 -33 5 1 5 5 28 10
53 10 53 -7 94 -42 103 -12 4 -19 9 -15 13 4 4 -4 22 -17 39 -14 17 -26 47
-28 66 -2 29 -7 34 -30 37 -61 7 -19 52 49 52 21 0 56 5 78 10 44 10 139 -16
183 -51 40 -31 74 -25 119 24 21 23 48 57 59 76 11 20 39 43 68 58 28 14 64
40 80 59 47 51 61 42 63 -41z m-61 -1087 c21 -21 32 -77 22 -114 -10 -39 -57
-64 -122 -64 l-46 0 0 101 0 101 65 -4 c41 -2 71 -10 81 -20z m493 -987 c20
-13 3 -34 -22 -27 -28 7 -47 -11 -47 -45 0 -24 4 -29 26 -29 33 0 30 -33 -4
-38 -21 -3 -22 -7 -22 -118 0 -114 0 -115 -22 -112 -22 3 -23 8 -26 113 -2 84
-6 112 -17 118 -20 11 -19 37 0 37 10 0 15 10 15 29 0 43 35 81 73 81 18 0 38
-4 46 -9z m461 -159 c0 -159 1 -169 21 -186 18 -15 19 -20 8 -27 -21 -13 -36
-11 -53 7 -13 13 -16 45 -16 195 0 172 1 179 20 179 19 0 20 -7 20 -168z m258
-25 c2 -182 2 -187 -18 -187 -11 0 -20 5 -20 10 0 6 -14 3 -31 -6 -66 -34
-119 22 -119 126 0 106 54 166 123 136 15 -7 17 -2 17 46 0 59 5 70 30 66 13
-3 15 -31 18 -191z m-427 157 c44 -22 69 -83 69 -169 0 -98 -28 -154 -88 -175
-40 -14 -46 -13 -80 5 -52 28 -75 80 -75 169 0 87 20 139 65 166 40 24 69 25
109 4z m-1420 -11 c55 -33 63 -127 14 -173 -15 -14 -41 -24 -69 -27 l-46 -6 0
-63 c0 -57 -2 -64 -20 -64 -19 0 -20 7 -20 175 l0 175 56 0 c35 0 67 -6 85
-17z m2559 4 c14 -7 33 -29 43 -49 15 -30 16 -44 8 -76 -14 -51 -40 -73 -95
-79 l-45 -6 -3 -61 c-3 -53 -5 -61 -23 -61 -19 0 -20 8 -23 160 -1 87 0 165 2
172 7 17 102 17 136 0z m-2210 -37 c0 -25 4 -30 23 -30 13 0 26 -3 30 -6 12
-12 -6 -34 -29 -34 -23 0 -24 -2 -24 -87 0 -98 8 -119 40 -110 13 3 23 0 27
-9 7 -19 3 -22 -34 -30 -24 -5 -36 -1 -52 15 -19 19 -21 33 -21 120 0 90 -2
99 -20 104 -11 3 -20 10 -20 17 0 7 9 14 20 17 14 4 20 14 20 34 0 22 5 29 20
29 16 0 20 -7 20 -30z m-156 -34 c36 -15 56 -54 56 -112 l0 -34 -70 0 c-75 0
-79 -4 -60 -54 11 -30 49 -42 80 -26 29 15 49 -2 31 -24 -20 -24 -74 -30 -108
-12 -83 42 -74 231 12 267 11 4 21 8 23 8 1 1 18 -5 36 -13z m365 3 c20 -7 31
-18 31 -30 0 -22 -4 -23 -32 -8 -31 17 -68 3 -68 -26 0 -18 11 -30 52 -52 66
-35 83 -78 51 -121 -29 -38 -75 -50 -119 -28 -20 9 -34 22 -31 29 4 12 12 12
68 0 31 -6 53 18 45 50 -3 15 -21 30 -48 43 -23 10 -49 31 -58 47 -13 24 -13
30 0 54 13 24 52 52 71 53 3 0 20 -5 38 -11z m349 -12 c31 -25 44 -70 40 -133
-5 -74 -28 -114 -76 -128 -87 -25 -149 98 -108 214 21 59 99 85 144 47z m1121
12 c38 -14 61 -54 61 -109 l0 -40 -64 0 c-36 0 -67 -3 -69 -7 -2 -5 0 -23 5
-40 10 -38 49 -54 81 -34 25 16 46 -1 28 -23 -20 -24 -66 -29 -105 -11 -44 21
-60 64 -54 150 4 66 22 99 63 116 11 4 20 8 21 8 1 1 15 -4 33 -10z m239 -17
c3 -16 -2 -22 -16 -22 -41 0 -57 -36 -60 -136 -4 -85 -6 -94 -23 -94 -18 0
-19 9 -19 135 0 128 1 135 20 135 12 0 20 -7 20 -16 0 -13 5 -12 27 6 31 24
47 22 51 -8z m519 -7 c22 -25 40 -96 28 -115 -3 -5 -35 -10 -71 -10 -60 0 -64
-1 -64 -23 0 -12 7 -33 16 -46 16 -23 43 -25 85 -7 11 5 19 1 23 -9 9 -24 -58
-50 -97 -38 -63 18 -92 107 -67 199 23 80 96 105 147 49z m213 16 c0 -14 -16
-29 -35 -32 -32 -6 -45 -47 -45 -142 0 -86 -1 -88 -22 -85 -22 3 -23 8 -26
113 -3 118 2 155 20 155 6 0 17 -8 24 -17 9 -12 13 -13 14 -5 0 7 10 16 23 21
22 8 47 4 47 -8z m129 8 c21 -7 31 -18 31 -31 0 -15 -4 -18 -17 -12 -10 4 -31
8 -48 8 -27 1 -30 -2 -30 -28 0 -25 7 -33 50 -55 47 -25 50 -28 53 -70 4 -52
-15 -78 -64 -87 -39 -7 -87 13 -92 40 -3 16 0 18 19 11 53 -16 75 -16 88 -1
21 25 6 62 -31 76 -48 19 -78 50 -78 80 0 33 42 74 81 79 3 1 20 -4 38 -10z
m251 -25 c21 -20 25 -35 28 -97 3 -62 1 -77 -20 -106 -29 -43 -68 -58 -110
-40 -86 35 -88 228 -3 265 38 17 73 10 105 -22z m237 12 c28 -24 28 -26 28
-138 0 -109 -1 -113 -22 -116 -22 -3 -22 -1 -25 109 -3 92 -6 114 -20 123 -13
8 -22 6 -37 -8 -17 -16 -21 -33 -23 -120 -3 -96 -4 -101 -25 -104 -23 -3 -23
-3 -23 132 0 129 1 136 20 136 12 0 20 -7 20 -17 0 -14 2 -15 18 -1 16 14 38
25 54 27 4 1 20 -10 35 -23z m223 -2 c11 -11 12 -16 2 -26 -9 -9 -15 -9 -24 0
-16 16 -53 15 -68 -3 -19 -23 -3 -50 40 -69 55 -24 70 -42 70 -82 0 -63 -61
-98 -128 -72 -39 15 -52 46 -17 40 87 -15 84 -15 96 12 15 32 3 49 -57 75 -47
21 -61 50 -50 97 12 47 97 64 136 28z"/>
<path d="M2464 1344 c-26 -38 -23 -140 5 -167 17 -18 24 -19 46 -9 24 11 25
15 25 96 0 74 -3 87 -19 96 -29 15 -39 13 -57 -16z"/>
<path d="M2071 1433 c-52 -43 -48 -225 5 -259 35 -24 72 -11 90 31 17 41 19
149 3 194 -18 50 -60 65 -98 34z"/>
<path d="M640 1370 l0 -70 33 0 c43 0 67 26 67 72 0 43 -25 68 -68 68 l-32 0
0 -70z"/>
<path d="M3210 1370 l0 -70 34 0 c42 0 61 21 61 70 0 49 -19 70 -61 70 l-34 0
0 -70z"/>
<path d="M872 1357 c-7 -8 -15 -28 -18 -45 l-6 -32 46 0 c54 0 65 14 44 57
-15 31 -49 41 -66 20z"/>
<path d="M1556 1348 c-10 -14 -16 -44 -16 -83 0 -66 18 -105 50 -105 32 0 50
39 50 105 0 93 -46 138 -84 83z"/>
<path d="M2722 1362 c-14 -10 -33 -68 -24 -76 3 -3 23 -6 44 -6 46 0 59 20 37
59 -16 28 -36 36 -57 23z"/>
<path d="M3436 1348 c-9 -12 -16 -33 -16 -45 0 -21 5 -23 45 -23 44 0 45 1 45
33 0 57 -45 77 -74 35z"/>
<path d="M4025 1356 c-24 -17 -33 -128 -13 -166 16 -30 50 -37 72 -15 24 25
23 156 -2 178 -23 21 -33 21 -57 3z"/>
</g>
</svg>
